# xmcd
#
# Track frame offsets:
#	150
#	12565
#	30121
#	51719
#	73580
#	91707
#	117268
#	132433
#
# Disc length: 2025 seconds
#
# Revision: 0
# Processed by: cddbd v1.5.2PL0 Copyright (c) Steve Scherf et al.
# Submitted via: EZCDAudioConverter 1.3.4.1
#
DISCID=6707e708
DTITLE=Goatedeum - Obscure Goatedeum
DYEAR=2012
DGENRE=Black Metal
TTITLE0=Intro - Circle Of Damnation
TTITLE1=Black Preacher
TTITLE2=Sabbath Night - Part I (The Ritual)
TTITLE3=Pointiff Of Death - Part II (The Pact)
TTITLE4=Fatal Darkness
TTITLE5=Malefic Invocation
TTITLE6=Cult In Sacrifice
TTITLE7=Necrogoat
EXTD=
EXTT0=
EXTT1=
EXTT2=
EXTT3=
EXTT4=
EXTT5=
EXTT6=
EXTT7=
PLAYORDER=
